<svg width="20" height="16" viewBox="0 0 20 16" fill="none" xmlns="http://www.w3.org/2000/svg">
<path d="M9.23111 13.1429H16.3244C16.583 13.1429 16.797 13.0552 16.9667 12.88C17.1363 12.7048 17.2215 12.4846 17.2222 12.2194V7.56114C17.2222 7.29524 17.137 7.07505 16.9667 6.90057C16.7963 6.72609 16.5822 6.63847 16.3244 6.63771H9.23111C8.97333 6.63771 8.75926 6.72533 8.58889 6.90057C8.41852 7.07581 8.33333 7.296 8.33333 7.56114V12.2194C8.33333 12.4853 8.41852 12.7055 8.58889 12.88C8.75926 13.0545 8.97333 13.1421 9.23111 13.1429ZM1.79556 16C1.2837 16 0.856667 15.824 0.514445 15.472C0.172222 15.12 0.000740741 14.6804 0 14.1531V1.84686C0 1.32038 0.171482 0.881143 0.514445 0.529143C0.857408 0.177143 1.28407 0.000761905 1.79444 0H18.2056C18.7167 0 19.1433 0.176381 19.4856 0.529143C19.8278 0.881904 19.9993 1.32114 20 1.84686V14.1543C20 14.68 19.8285 15.1192 19.4856 15.472C19.1426 15.8248 18.7159 16.0008 18.2056 16H1.79556ZM1.79556 14.8571H18.2056C18.3759 14.8571 18.5326 14.784 18.6756 14.6377C18.8185 14.4914 18.8896 14.3299 18.8889 14.1531V1.84686C18.8889 1.67086 18.8178 1.50933 18.6756 1.36229C18.5333 1.21524 18.3767 1.1421 18.2056 1.14286H1.79444C1.62407 1.14286 1.46741 1.216 1.32444 1.36229C1.18148 1.50857 1.11037 1.6701 1.11111 1.84686V14.1543C1.11111 14.3295 1.18222 14.4907 1.32444 14.6377C1.46667 14.7848 1.62333 14.8579 1.79444 14.8571" fill="white"/>
</svg>
