<svg width="62" height="62" viewBox="0 0 62 62" fill="none" xmlns="http://www.w3.org/2000/svg">
<circle cx="31" cy="31" r="31" fill="white"/>
<path d="M28.7766 25.7109C26.9812 26.5547 25.6453 28.2094 25.2281 30.1969C25.5141 30.2016 28.1531 30.2109 31.1531 29.4141C30.0891 27.5297 28.9453 25.9406 28.7766 25.7109ZM30 25.2844C30.1781 25.5234 31.3406 27.1078 32.3906 29.0344C34.6687 28.1766 35.6297 26.8828 35.7469 26.7188C34.1719 25.3219 32.0297 24.7922 30 25.2844ZM34.0031 37.4062C33.9094 36.8438 33.5344 34.8844 32.6344 32.55C30.0516 33.4312 28.2375 35.1937 27.5672 36.5625C29.4656 38.0438 31.9406 38.2828 34.0031 37.4062ZM31.6781 30.4031C28.4813 31.3594 25.3781 31.3219 25.0969 31.3125V31.5094C25.0969 33.1547 25.7203 34.6547 26.7422 35.7938C27.7828 34.0172 29.8875 32.1422 32.2031 31.4906C32.0437 31.125 31.8656 30.7641 31.6828 30.4031H31.6781ZM35.0766 36.8203C36.5156 35.85 37.5375 34.3078 37.8234 32.5266C37.6078 32.4562 35.8406 31.9313 33.8344 32.2547C34.6734 34.5563 35.0109 36.4312 35.0766 36.8203ZM33.4453 31.2422C35.5781 30.975 37.6969 31.4016 37.9078 31.4484C37.8938 29.9344 37.3547 28.5469 36.4594 27.4594C36.3234 27.6422 35.25 29.0156 32.8828 29.9859C33.1078 30.4453 33.2719 30.8203 33.4453 31.2422ZM39 21H24C22.3453 21 21 22.3453 21 24V39C21 40.6547 22.3453 42 24 42H39C40.6547 42 42 40.6547 42 39V24C42 22.3453 40.6547 21 39 21ZM31.5 24C33.4891 24 35.3968 24.7902 36.8033 26.1967C38.2098 27.6032 39 29.5109 39 31.5C39 33.4891 38.2098 35.3968 36.8033 36.8033C35.3968 38.2098 33.4891 39 31.5 39C29.5109 39 27.6032 38.2098 26.1967 36.8033C24.7902 35.3968 24 33.4891 24 31.5C24 29.5109 24.7902 27.6032 26.1967 26.1967C27.6032 24.7902 29.5109 24 31.5 24Z" fill="black"/>
</svg>
