<svg width="62" height="62" viewBox="0 0 62 62" fill="none" xmlns="http://www.w3.org/2000/svg">
<circle cx="30.9563" cy="30.9563" r="30.9563" fill="white"/>
<path d="M23 23.5664C23 21.0449 25.0449 19 27.5664 19H35.4026C37.9241 19 39.969 21.0449 39.969 23.5664C39.969 25.1632 39.1491 26.5693 37.9098 27.3844C39.1491 28.1995 39.969 29.6056 39.969 31.2024C39.969 33.7239 37.9241 35.7688 35.4026 35.7688H35.3025C34.1204 35.7688 33.0432 35.3207 32.2328 34.5819V38.7908C32.2328 41.3457 30.1356 43.4048 27.5902 43.4048C25.0735 43.4048 23 41.3647 23 38.8385C23 37.2417 23.8198 35.8355 25.0592 35.0204C23.8198 34.2054 23 32.7992 23 31.2024C23 29.6056 23.8198 28.1995 25.0592 27.3844C23.8198 26.5693 23 25.1632 23 23.5664ZM30.7361 28.1327H27.5664C25.8695 28.1327 24.4967 29.5055 24.4967 31.2024C24.4967 32.8898 25.8599 34.2626 27.5473 34.2721H30.7361V28.1327ZM32.2328 31.2024C32.2328 32.8993 33.6056 34.2721 35.3025 34.2721H35.4026C37.0995 34.2721 38.4723 32.8993 38.4723 31.2024C38.4723 29.5055 37.0995 28.1327 35.4026 28.1327H35.3025C33.6056 28.1327 32.2328 29.5055 32.2328 31.2024ZM27.5664 35.7688H27.5473C25.8599 35.7783 24.4967 37.1511 24.4967 38.8385C24.4967 40.5258 25.8885 41.9081 27.5902 41.9081C29.3205 41.9081 30.7361 40.5068 30.7361 38.786V35.764H27.5664V35.7688ZM27.5664 20.4967C25.8695 20.4967 24.4967 21.8695 24.4967 23.5664C24.4967 25.2633 25.8695 26.636 27.5664 26.636H30.7361V20.4967H27.5664ZM32.2328 26.636H35.4026C37.0995 26.636 38.4723 25.2633 38.4723 23.5664C38.4723 21.8695 37.0995 20.4967 35.4026 20.4967H32.2328V26.636Z" fill="black"/>
</svg>
