<svg width="1701" height="3" viewBox="0 0 1701 3" fill="none" xmlns="http://www.w3.org/2000/svg">
<path d="M4.06504e-05 1.3335C4.06504e-05 2.06988 0.596994 2.66683 1.33337 2.66683C2.06975 2.66683 2.66671 2.06988 2.66671 1.3335C2.66671 0.597116 2.06975 0.000162721 1.33337 0.000162721C0.596994 0.000162721 4.06504e-05 0.597116 4.06504e-05 1.3335ZM1698 1.3335C1698 2.06988 1698.6 2.66683 1699.33 2.66683C1700.07 2.66683 1700.67 2.06988 1700.67 1.3335C1700.67 0.597116 1700.07 0.000162721 1699.33 0.000162721C1698.6 0.000162721 1698 0.597116 1698 1.3335ZM1.33337 1.3335V1.5835L1699.33 1.5835V1.3335V1.0835L1.33337 1.0835V1.3335Z" fill="white"/>
</svg>
