<svg width="62" height="62" viewBox="0 0 62 62" fill="none" xmlns="http://www.w3.org/2000/svg">
<circle cx="30.9563" cy="30.9563" r="30.9563" fill="white"/>
<path d="M43.4696 29.8252L32.1369 18.4925C31.824 18.1738 31.3953 18 30.955 18C30.5146 18 30.0859 18.1738 29.773 18.4867L27.415 20.839L30.3988 23.8228C31.9689 23.2955 33.4521 24.7961 32.9133 26.3547L35.7928 29.2342C37.7743 28.5505 39.3386 31.0303 37.8496 32.5193C36.3143 34.0547 33.7824 32.3513 34.6051 30.3582L31.9225 27.6757V34.7383C33.3884 35.4626 33.2146 37.1602 32.4498 37.9249C32.079 38.2957 31.5691 38.5101 31.0419 38.5101C30.5146 38.5101 30.0106 38.3015 29.634 37.9249C28.6143 36.9052 28.9909 35.2076 30.2829 34.6804V27.554C29.0778 27.0615 28.8576 25.7753 29.2052 24.9468L26.262 21.9977L18.4925 29.7672C18.1738 30.0859 18 30.5089 18 30.9492C18 31.3895 18.1738 31.8183 18.4925 32.1311L29.8252 43.4696C30.138 43.7825 30.561 43.9563 31.0071 43.9563C31.4532 43.9563 31.8762 43.7825 32.1891 43.4696L43.4696 32.1891C43.7825 31.8762 43.9563 31.4475 43.9563 31.0071C43.9563 30.5668 43.7825 30.138 43.4696 29.8252Z" fill="black"/>
</svg>
