<svg width="62" height="62" viewBox="0 0 62 62" fill="none" xmlns="http://www.w3.org/2000/svg">
<circle cx="31" cy="31" r="31" fill="white"/>
<path d="M27.3585 37.9092C27.3585 37.996 27.2565 38.0655 27.1278 38.0655C26.9815 38.0785 26.8794 38.009 26.8794 37.9092C26.8794 37.8223 26.9815 37.7528 27.1101 37.7528C27.2431 37.7398 27.3585 37.8093 27.3585 37.9092ZM25.979 37.7138C25.948 37.8006 26.0367 37.9005 26.1698 37.9265C26.2851 37.97 26.4181 37.9265 26.4448 37.8397C26.4714 37.7528 26.3871 37.653 26.254 37.6139C26.1387 37.5835 26.0101 37.6269 25.979 37.7138ZM27.9395 37.6399C27.8109 37.6703 27.7222 37.7528 27.7355 37.8527C27.7488 37.9396 27.8641 37.996 27.9972 37.9656C28.1258 37.9352 28.2145 37.8527 28.2012 37.7659C28.1879 37.6834 28.0681 37.6269 27.9395 37.6399ZM30.8581 21C24.706 21 20 25.5725 20 31.5954C20 36.4111 23.096 40.532 27.5181 41.9823C28.0859 42.0822 28.2855 41.7391 28.2855 41.4569C28.2855 41.1877 28.2722 39.7026 28.2722 38.7907C28.2722 38.7907 25.1673 39.442 24.5153 37.4966C24.5153 37.4966 24.0097 36.233 23.2823 35.9073C23.2823 35.9073 22.2665 35.2256 23.3532 35.2386C23.3532 35.2386 24.4577 35.3255 25.0653 36.3589C26.0367 38.0351 27.6645 37.5531 28.2988 37.2665C28.4008 36.5717 28.6891 36.0897 29.0085 35.8031C26.529 35.5339 24.0274 35.1822 24.0274 31.0048C24.0274 29.8107 24.3645 29.2114 25.0742 28.4472C24.9589 28.1649 24.5819 27.0011 25.1895 25.4987C26.1165 25.2164 28.25 26.6711 28.25 26.6711C29.1371 26.428 30.0907 26.302 31.0355 26.302C31.9802 26.302 32.9339 26.428 33.821 26.6711C33.821 26.6711 35.9544 25.2121 36.8815 25.4987C37.4891 27.0055 37.1121 28.1649 36.9968 28.4472C37.7065 29.2158 38.1411 29.815 38.1411 31.0048C38.1411 35.1952 35.5286 35.5296 33.0492 35.8031C33.4573 36.1462 33.8032 36.7975 33.8032 37.818C33.8032 39.2814 33.7899 41.0921 33.7899 41.4482C33.7899 41.7304 33.994 42.0735 34.5573 41.9736C38.9927 40.532 42 36.4111 42 31.5954C42 25.5725 37.0101 21 30.8581 21ZM24.3113 35.9768C24.2536 36.0202 24.2669 36.1201 24.3423 36.2026C24.4133 36.2721 24.5153 36.3025 24.573 36.246C24.6306 36.2026 24.6173 36.1027 24.5419 36.0202C24.471 35.9508 24.369 35.9204 24.3113 35.9768ZM23.8323 35.6251C23.8012 35.6815 23.8456 35.751 23.9343 35.7944C24.0052 35.8379 24.094 35.8248 24.125 35.764C24.156 35.7076 24.1117 35.6381 24.023 35.5947C23.9343 35.5686 23.8633 35.5817 23.8323 35.6251ZM25.2694 37.171C25.1984 37.2274 25.225 37.3577 25.327 37.4402C25.429 37.5401 25.5577 37.5531 25.6153 37.4836C25.673 37.4272 25.6464 37.2969 25.5577 37.2144C25.4601 37.1145 25.327 37.1015 25.2694 37.171ZM24.7637 36.5326C24.6927 36.5761 24.6927 36.689 24.7637 36.7888C24.8347 36.8887 24.9544 36.9321 25.0121 36.8887C25.0831 36.8323 25.0831 36.7194 25.0121 36.6195C24.95 36.5196 24.8347 36.4762 24.7637 36.5326Z" fill="black"/>
</svg>
