<svg width="62" height="62" viewBox="0 0 62 62" fill="none" xmlns="http://www.w3.org/2000/svg">
<circle cx="30.9563" cy="30.9563" r="30.9563" fill="white"/>
<path d="M17 18V43.9563H42.9563V18H17ZM31.1253 38.2436C31.1253 40.7697 29.6421 41.9227 27.481 41.9227C25.5285 41.9227 24.3987 40.9146 23.8193 39.6921L25.8066 38.4927C26.189 39.1706 26.5366 39.7442 27.3767 39.7442C28.1763 39.7442 28.6861 39.4313 28.6861 38.2088V29.9179H31.1253V38.2436ZM36.896 41.9227C34.6306 41.9227 33.1648 40.845 32.4521 39.4313L34.4394 38.2842C34.9608 39.1358 35.6445 39.7674 36.8438 39.7674C37.852 39.7674 38.5009 39.2633 38.5009 38.5623C38.5009 37.728 37.8404 37.4325 36.7222 36.94L36.1138 36.6793C34.3525 35.9319 33.1879 34.9875 33.1879 33.0002C33.1879 31.1693 34.5842 29.7788 36.7569 29.7788C38.3097 29.7788 39.4221 30.3177 40.2216 31.7313L38.3213 32.9481C37.9041 32.2006 37.4522 31.9052 36.7511 31.9052C36.0385 31.9052 35.5866 32.3571 35.5866 32.9481C35.5866 33.6781 36.0385 33.9736 37.0872 34.4313L37.6955 34.692C39.7697 35.5784 40.9343 36.4881 40.9343 38.5275C40.9343 40.7176 39.2077 41.9227 36.896 41.9227Z" fill="black"/>
</svg>
