<svg width="62" height="62" viewBox="0 0 62 62" fill="none" xmlns="http://www.w3.org/2000/svg">
<circle cx="31" cy="31" r="31" fill="white"/>
<path d="M40.5 21H22.4953C21.6703 21 21 21.6797 21 22.5141V40.4859C21 41.3203 21.6703 42 22.4953 42H40.5C41.325 42 42 41.3203 42 40.4859V22.5141C42 21.6797 41.325 21 40.5 21ZM27.3469 39H24.2344V28.9781H27.3516V39H27.3469ZM25.7906 24C26.2693 24 26.7283 24.1901 27.0667 24.5286C27.4052 24.867 27.5953 25.3261 27.5953 25.8047C27.5953 26.2833 27.4052 26.7424 27.0667 27.0808C26.7283 27.4192 26.2693 27.6094 25.7906 27.6094C25.312 27.6094 24.853 27.4192 24.5145 27.0808C24.1761 26.7424 23.9859 26.2833 23.9859 25.8047C23.9859 25.3261 24.1761 24.867 24.5145 24.5286C24.853 24.1901 25.312 24 25.7906 24ZM39.0141 39H35.9016V34.125C35.9016 32.9625 35.8781 31.4672 34.2844 31.4672C32.6625 31.4672 32.4141 32.7328 32.4141 34.0406V39H29.3016V28.9781H32.2875V30.3469H32.3297C32.7469 29.5594 33.7641 28.7297 35.2781 28.7297C38.4281 28.7297 39.0141 30.8062 39.0141 33.5062V39Z" fill="black"/>
</svg>
