<svg width="129" height="100" viewBox="0 0 129 100" fill="none" xmlns="http://www.w3.org/2000/svg">
<path d="M93.9505 14.2793C90.2328 14.2793 86.6271 15.2834 83.4693 17.1129C79.9307 13.5431 75.8099 10.5533 71.2635 8.29987C77.5792 2.94511 85.6193 0 93.9505 0C113.301 0 129 15.618 129 34.9174C129 44.1767 125.305 53.0567 118.743 59.5939L102.819 75.4574C96.2573 81.9946 87.3437 85.676 78.0495 85.676C58.6995 85.676 43 70.058 43 50.7586C43 50.4239 43 50.0892 43.0224 49.7546C43.1344 45.8054 46.4266 42.7041 50.3906 42.8157C54.3547 42.9273 57.4677 46.207 57.3557 50.1562C57.3557 50.357 57.3557 50.5578 57.3557 50.7363C57.3557 62.1374 66.6276 71.3744 78.0719 71.3744C83.5589 71.3744 88.8219 69.2102 92.7187 65.328L108.642 49.4645C112.517 45.6046 114.711 40.3391 114.711 34.8728C114.711 23.4717 105.44 14.2347 93.9953 14.2347L93.9505 14.2793ZM61.6333 31.5261C61.2078 31.3476 60.7823 31.1022 60.4016 30.8344C57.5797 29.3842 54.3547 28.5587 50.9729 28.5587C45.4859 28.5587 40.2229 30.7229 36.326 34.6051L20.4026 50.4685C16.5281 54.3284 14.3333 59.5939 14.3333 65.0602C14.3333 76.4614 23.6052 85.6983 35.0495 85.6983C38.7448 85.6983 42.3505 84.7166 45.5083 82.8871C49.0469 86.4569 53.1677 89.4467 57.7365 91.7001C51.4208 97.0326 43.4031 100 35.0495 100C15.6995 100 0 84.382 0 65.0826C0 55.8233 3.69531 46.9433 10.2573 40.4061L26.1807 24.5426C32.7427 18.0054 41.6562 14.324 50.9505 14.324C70.3453 14.324 86 30.0759 86 49.3307C86 49.6207 86 49.9108 86 50.2008C85.9104 54.1499 82.6182 57.2512 78.6542 57.162C74.6901 57.0727 71.5771 53.7929 71.6667 49.8438C71.6667 49.6653 71.6667 49.5091 71.6667 49.3307C71.6667 41.8117 67.6354 35.2075 61.6333 31.5707V31.5261Z" fill="white"/>
</svg>
