<svg width="341" height="341" viewBox="0 0 341 341" fill="none" xmlns="http://www.w3.org/2000/svg">
<path d="M147.5 13.2793C161.732 5.06214 179.268 5.06215 193.5 13.2793L295.157 71.9707C309.39 80.1878 318.157 95.3736 318.157 111.808V229.191C318.157 245.625 309.39 260.811 295.157 269.028L193.5 327.721C179.268 335.938 161.732 335.938 147.5 327.721L45.8428 269.028C31.6104 260.811 22.8428 245.625 22.8428 229.191V111.808C22.8428 95.3736 31.6103 80.1878 45.8428 71.9707L147.5 13.2793ZM166 63.4912C166 49.5655 150.864 40.9144 138.865 47.9814L56.8652 96.2783C51.3722 99.5137 48 105.413 48 111.788V232.06C48 238.516 51.4581 244.478 57.0625 247.684L138.919 294.509C150.95 301.391 165.92 292.662 165.856 278.801L165.444 189.417C165.398 179.508 157.352 171.5 147.444 171.5H143.779C133.838 171.5 125.779 179.559 125.779 189.5V224.986C125.779 235.449 112.359 239.76 106.267 231.253C104.983 229.461 104.281 227.317 104.255 225.113L103.468 158.706C103.39 152.108 106.928 145.995 112.689 142.778L156.778 118.15C162.472 114.97 166 108.958 166 102.437V63.4912ZM192.941 45C183.585 45 176 52.5844 176 61.9404V145.547C176 153.04 180.642 159.749 187.653 162.391L210.5 171L246.92 187.523C251.536 189.617 254.5 194.219 254.5 199.287C254.5 202.374 253.685 205.407 252.137 208.077L245.125 220.177C239.186 230.426 225.138 232.243 216.787 223.843L212.236 219.266C208.882 215.893 207 211.33 207 206.574V186.438C207 177.912 200.087 171 191.561 171C182.987 171 176.055 177.986 176.122 186.56L176.844 278.604C176.952 292.397 191.898 300.949 203.844 294.052L285 247.195C290.569 243.98 294 238.037 294 231.607V183.876C294 176.176 289.102 169.328 281.814 166.841L222.385 146.557C215.277 144.131 210.5 137.451 210.5 129.941C210.5 116.763 224.48 108.283 236.167 114.372L267.684 130.79C279.666 137.033 294 128.339 294 114.827V111.366C294 104.949 290.584 99.0174 285.035 95.7969L201.443 47.2881C198.86 45.7893 195.927 45.0001 192.941 45Z" fill="white"/>
</svg>
