<svg width="20" height="22" viewBox="0 0 20 22" fill="none" xmlns="http://www.w3.org/2000/svg">
<path d="M15.974 8.75107C15.977 8.25707 15.994 7.97408 16.104 7.72108C16.236 7.42008 16.483 7.19708 16.976 6.75208L17.162 6.58508C18.218 5.63308 18.746 5.15608 18.75 4.46708C18.754 3.77708 18.285 3.34508 17.349 2.47908C17.2139 2.35363 17.0745 2.23289 16.931 2.11708C16.459 1.73908 15.793 1.32508 15.283 1.02708C15.0484 0.890923 14.7891 0.802695 14.5201 0.767506C14.2511 0.732316 13.9778 0.750864 13.716 0.822075L13.226 0.951075C12.8316 1.05581 12.4921 1.3073 12.277 1.65408C11.075 3.55108 8.42502 3.55108 7.22302 1.65408C7.00815 1.3075 6.66906 1.05604 6.27502 0.951075L5.78503 0.822075C5.52311 0.750727 5.24963 0.732108 4.98046 0.767299C4.71129 0.80249 4.4518 0.89079 4.21703 1.02708C3.70703 1.32508 3.04103 1.73908 2.56903 2.11708C2.42556 2.23289 2.28615 2.35363 2.15103 2.47908C1.21403 3.34508 0.746025 3.77808 0.750025 4.46708C0.754025 5.15608 1.28203 5.63308 2.33803 6.58508L2.52403 6.75208C3.01703 7.19708 3.26403 7.42008 3.39503 7.72008C3.52703 8.02008 3.52703 8.36307 3.52703 9.04707V17.0161C3.52703 18.3391 3.52703 19.0011 3.97603 19.5631C4.42403 20.1251 4.96103 20.2231 6.03403 20.4211C7.02603 20.6031 8.28303 20.7511 9.75003 20.7511C11.217 20.7511 12.474 20.6031 13.466 20.4211C14.539 20.2231 15.076 20.1251 15.525 19.5631C15.973 19.0011 15.973 18.3391 15.973 17.0161V12.7511" stroke="white" stroke-width="1.5" stroke-linecap="round"/>
</svg>
