<svg width="62" height="62" viewBox="0 0 62 62" fill="none" xmlns="http://www.w3.org/2000/svg">
<circle cx="30.9563" cy="30.9563" r="30.9563" fill="white"/>
<path fill-rule="evenodd" clip-rule="evenodd" d="M34.3642 27.4706C34.6252 28.2254 34.8131 28.9961 34.8749 29.7948C34.9516 30.7857 34.9165 31.7696 34.7076 32.7443C34.7019 32.7711 34.6899 32.7963 34.6809 32.8223C34.6154 32.8225 34.5486 32.8144 34.4845 32.8243C33.9433 32.9093 33.4026 32.9974 32.8618 33.0851C32.3029 33.1756 31.7431 33.2626 31.1852 33.3593C30.9875 33.3935 30.7428 33.3527 30.663 33.6261C30.6607 33.6336 30.6379 33.6349 30.6248 33.6391L30.6517 32.0051L30.6243 28.0622L30.8847 28.0175C31.3107 27.9477 31.7366 27.877 32.1629 27.8092C32.6716 27.7284 33.1808 27.6499 33.6898 27.5711C33.9144 27.5361 34.1392 27.5041 34.3642 27.4706Z" fill="black"/>
<path fill-rule="evenodd" clip-rule="evenodd" d="M30.0867 38.4027C29.812 38.1664 29.5276 37.9406 29.2642 37.6922C27.847 36.3555 26.8104 34.7822 26.3 32.8854C26.1593 32.3634 26.0655 31.8329 26.0354 31.2934C26.0143 30.9159 25.9837 30.535 26.0104 30.1595C26.0814 29.1606 26.2258 28.1713 26.5188 27.2091L26.5349 27.1867C26.5633 27.2246 26.6043 27.2581 26.6188 27.3008C26.9047 28.143 27.1886 28.9858 27.471 29.8291C28.3584 32.4791 29.2446 35.1298 30.1334 37.7792C30.1508 37.8309 30.1958 37.8733 30.2282 37.92L30.0867 38.4027Z" fill="#060505"/>
<path fill-rule="evenodd" clip-rule="evenodd" d="M34.3642 27.4706C34.1392 27.5041 33.9142 27.5361 33.6897 27.5707C33.1806 27.6496 32.6714 27.7281 32.1627 27.8089C31.7364 27.8767 31.3105 27.9474 30.8845 28.0172L30.6241 28.0619L30.6221 27.892C30.6135 27.7523 30.5987 27.6128 30.5971 27.4732C30.5859 26.5826 30.5789 25.692 30.5678 24.8014C30.561 24.2439 30.5508 23.6866 30.5394 23.1293C30.5324 22.783 30.5249 22.4365 30.5093 22.0907C30.5009 21.9049 30.4709 21.72 30.4587 21.5342C30.4519 21.4274 30.4613 21.3198 30.4635 21.2125C30.5963 21.4698 30.7262 21.7291 30.8627 21.9845C31.0785 22.3884 31.4222 22.6859 31.7316 23.0106C32.9546 24.2936 33.823 25.7855 34.3642 27.4706Z" fill="black"/>
<path fill-rule="evenodd" clip-rule="evenodd" d="M30.6243 33.639C30.6375 33.6348 30.6604 33.6335 30.6625 33.626C30.7423 33.3525 30.987 33.3933 31.1847 33.3592C31.7427 33.2626 32.3024 33.1755 32.8614 33.0849C33.4021 32.9973 33.9428 32.9092 34.4841 32.8242C34.5481 32.8141 34.6149 32.8224 34.6805 32.8222C34.5793 33.1831 34.4997 33.5519 34.3714 33.9029C34.2257 34.301 34.0495 34.6896 33.8624 35.0705C33.5822 35.6387 33.2355 36.1715 32.8295 36.6578C32.5175 37.033 32.1698 37.3798 31.8212 37.7223C31.6285 37.9117 31.4014 38.066 31.1901 38.2362L31.1353 38.1988L30.9379 38.0301L30.7337 37.5825C30.5942 37.0604 30.5181 36.5234 30.5071 35.9831L30.5108 35.8919L30.5386 35.4974C30.5479 35.3628 30.5602 35.2284 30.5659 35.0934C30.5869 34.6086 30.6051 34.1238 30.6243 33.639Z" fill="black"/>
<path fill-rule="evenodd" clip-rule="evenodd" d="M30.6247 33.6391C30.6055 34.1239 30.5873 34.6087 30.5666 35.0937C30.5609 35.2286 30.5486 35.3631 30.5393 35.4977L30.4149 35.5447C30.1387 34.7315 29.8623 33.9269 29.592 33.1202C29.1449 31.7856 28.7032 30.4488 28.2567 29.1139C27.8961 28.0364 27.533 26.9598 27.1674 25.884C27.1504 25.8336 27.1013 25.7942 27.0671 25.7497L27.8631 24.2861C27.8904 24.3336 27.9265 24.378 27.9438 24.429C28.3124 25.5187 28.6792 26.6089 29.0441 27.6998C29.5182 29.1191 29.9893 30.5395 30.4631 31.959C30.4819 32.0158 30.5131 32.0681 30.5429 32.1317L30.6518 32.0049L30.6247 33.6391Z" fill="#121111"/>
<path fill-rule="evenodd" clip-rule="evenodd" d="M27.0669 25.7498C27.101 25.7943 27.1499 25.8336 27.1672 25.884C27.5328 26.9598 27.8959 28.0365 28.2565 29.114C28.7029 30.4489 29.1446 31.7856 29.5917 33.1202C29.8619 33.9268 30.1383 34.7316 30.4147 35.5448L30.539 35.4978L30.5112 35.8922L30.486 35.9831C30.4428 36.4149 30.4064 36.8477 30.3537 37.2785C30.3272 37.4944 30.271 37.7064 30.2282 37.9202C30.196 37.8736 30.1508 37.8311 30.1334 37.7794C29.2446 35.1299 28.3584 32.4794 27.471 29.8293C27.1887 28.986 26.9047 28.1432 26.6188 27.3011C26.6043 27.2583 26.5635 27.2248 26.5349 27.1869L27.0669 25.7498Z" fill="#0A0909"/>
<path fill-rule="evenodd" clip-rule="evenodd" d="M30.6515 32.0049L30.5426 32.1318C30.5128 32.0682 30.4816 32.0157 30.4627 31.9591C29.9892 30.5396 29.5178 29.1192 29.0438 27.6999C28.6789 26.609 28.3121 25.5187 27.9434 24.4291C27.9264 24.3781 27.8903 24.3335 27.8628 24.2862L28.8472 22.9913C28.8783 23.0327 28.9225 23.0696 28.9386 23.1163C29.2119 23.9163 29.4827 24.7174 29.752 25.5189C30.0035 26.2674 30.2512 27.017 30.5057 27.7646C30.5227 27.8146 30.5821 27.8501 30.6217 27.8924L30.6237 28.0623C30.6331 29.3762 30.6424 30.6907 30.6515 32.0049Z" fill="#0F0E0E"/>
<path fill-rule="evenodd" clip-rule="evenodd" d="M30.6215 27.892C30.5818 27.8498 30.5225 27.8143 30.5054 27.7642C30.2509 27.0167 30.0032 26.2671 29.7517 25.5185C29.4824 24.717 29.2116 23.9162 28.9383 23.116C28.9222 23.0693 28.878 23.0324 28.8469 22.9909C29.167 22.6775 29.4772 22.3528 29.8102 22.0538C30.1063 21.7882 30.3443 21.5033 30.3552 21.0836C30.3556 21.0662 30.3648 21.0488 30.3787 21L30.4631 21.2123C30.461 21.3198 30.4514 21.4273 30.4584 21.5341C30.4706 21.7199 30.5005 21.9047 30.509 22.0906C30.5246 22.4364 30.532 22.7828 30.539 23.1291C30.5503 23.6864 30.5605 24.2438 30.5675 24.8012C30.5784 25.6919 30.5855 26.5825 30.5968 27.4731C30.5981 27.613 30.6127 27.7524 30.6215 27.892Z" fill="#181818"/>
<path fill-rule="evenodd" clip-rule="evenodd" d="M30.2284 37.9199C30.2711 37.7062 30.3274 37.494 30.3539 37.2783C30.4067 36.8476 30.443 36.4146 30.4862 35.9828L30.4969 35.9812L30.5077 35.983C30.5187 36.5233 30.5948 37.0603 30.7343 37.5824C30.7057 37.6202 30.6652 37.6538 30.6501 37.6964C30.5319 38.0297 30.4205 38.3656 30.3017 38.6989C30.2854 38.7444 30.2402 38.7798 30.2084 38.8198L30.0869 38.4026L30.2284 37.9199Z" fill="#474747"/>
<path fill-rule="evenodd" clip-rule="evenodd" d="M30.2083 38.82C30.2401 38.78 30.2855 38.7446 30.3016 38.6991C30.4204 38.3658 30.5319 38.0301 30.65 37.6966C30.6651 37.654 30.7054 37.6204 30.7342 37.5826L30.9382 38.0304C30.8979 38.0876 30.8423 38.1391 30.8199 38.2029L30.429 39.3505C30.4129 39.3965 30.358 39.429 30.3212 39.4679L30.2083 38.82Z" fill="#474747"/>
<path fill-rule="evenodd" clip-rule="evenodd" d="M30.3213 39.4677C30.3582 39.429 30.413 39.3964 30.4291 39.3503L30.8199 38.2027C30.8422 38.1391 30.898 38.0874 30.9383 38.0302L31.1358 38.1988C31.0404 38.2931 30.9874 38.402 31.0192 38.5397L30.9592 38.7361C30.9319 38.7698 30.8924 38.799 30.8789 38.8376C30.7425 39.2283 30.6123 39.621 30.4749 40.0117C30.4575 40.0613 30.4092 40.1002 30.3751 40.1437C30.3574 39.9182 30.3393 39.6932 30.3213 39.4677Z" fill="#474747"/>
<path fill-rule="evenodd" clip-rule="evenodd" d="M30.3747 40.1438C30.4086 40.1001 30.4569 40.0612 30.4745 40.0118C30.6119 39.6213 30.7421 39.2285 30.8785 38.8377C30.892 38.7993 30.9313 38.7699 30.9588 38.7362L30.8761 39.6377C30.854 39.6632 30.8219 39.6855 30.8114 39.7153C30.7179 39.9777 30.6298 40.242 30.5359 40.5044C30.5166 40.5585 30.4795 40.6063 30.4506 40.6569C30.4249 40.6233 30.3789 40.5907 30.3768 40.5556C30.3685 40.4189 30.3742 40.2812 30.3747 40.1438Z" fill="#474747"/>
<path fill-rule="evenodd" clip-rule="evenodd" d="M30.4507 40.6568C30.4796 40.6061 30.5167 40.5583 30.536 40.5043C30.63 40.2421 30.718 39.9777 30.8114 39.7152C30.822 39.6854 30.8542 39.6633 30.8761 39.6376L30.8781 40.2294L30.6801 40.7373L30.4507 40.6568Z" fill="#474747"/>
<path fill-rule="evenodd" clip-rule="evenodd" d="M30.6804 40.7376L30.8784 40.2297L30.9192 40.8306L30.6804 40.7376Z" fill="#474747"/>
<path fill-rule="evenodd" clip-rule="evenodd" d="M31.0191 38.5404C30.9872 38.4025 31.0401 38.2933 31.1358 38.199L31.1907 38.2365L31.0191 38.5404Z" fill="#474747"/>
<path fill-rule="evenodd" clip-rule="evenodd" d="M30.5068 35.9834L30.4961 35.9816L30.4854 35.9832L30.5106 35.8922L30.5068 35.9834Z" fill="black"/>
</svg>
