<svg width="62" height="62" viewBox="0 0 62 62" fill="none" xmlns="http://www.w3.org/2000/svg">
<circle cx="30.9563" cy="30.9563" r="30.9563" fill="white"/>
<path d="M30.9761 42.7711C30.6467 42.7711 30.3125 42.6826 30.0225 42.5155L26.9897 40.7214C26.5375 40.4658 26.7587 40.3773 26.9061 40.3281C27.5107 40.1168 27.6336 40.0725 28.2775 39.7039C28.3463 39.6646 28.4348 39.6793 28.5036 39.7235L30.8335 41.1048C30.9171 41.1539 31.035 41.1539 31.1137 41.1048L40.1924 35.865C40.276 35.8158 40.33 35.7175 40.33 35.6192V25.1396C40.33 25.0364 40.276 24.943 40.1875 24.8889L31.1137 19.654C31.0301 19.6049 30.9171 19.6049 30.8335 19.654L21.7646 24.8938C21.6761 24.943 21.6221 25.0413 21.6221 25.1445V35.6192C21.6221 35.7175 21.6761 35.8158 21.7646 35.8601L24.2518 37.2953C25.6035 37.9688 26.4293 37.1774 26.4293 36.3762V26.0342C26.4293 25.8867 26.5473 25.7737 26.6948 25.7737H27.845C27.9875 25.7737 28.1104 25.8867 28.1104 26.0342V36.3811C28.1104 38.1801 27.1273 39.2123 25.4217 39.2123C24.8957 39.2123 24.4828 39.2123 23.3326 38.6422L20.9536 37.2708C20.3637 36.9316 20 36.2975 20 35.6143V25.1396C20 24.4613 20.3637 23.8223 20.9536 23.4831L30.0225 18.2433C30.5976 17.9189 31.3595 17.9189 31.9296 18.2433L41.0084 23.488C41.5982 23.8272 41.9619 24.4613 41.9619 25.1445V35.6192C41.9619 36.2975 41.5982 36.9316 41.0084 37.2757L31.9296 42.5155C31.6396 42.6826 31.3103 42.7711 30.9761 42.7711ZM38.3049 32.4439C38.3049 30.4826 36.9777 29.9616 34.1907 29.5929C31.3693 29.2194 31.0842 29.0277 31.0842 28.369C31.0842 27.8234 31.325 27.0959 33.4141 27.0959C35.277 27.0959 35.9652 27.499 36.2503 28.7573C36.2748 28.8753 36.383 28.9638 36.5059 28.9638H37.6856C37.7593 28.9638 37.8281 28.9343 37.8773 28.8802C37.9264 28.8261 37.951 28.7524 37.9461 28.6787C37.7642 26.511 36.324 25.5033 33.4141 25.5033C30.8237 25.5033 29.2802 26.5946 29.2802 28.428C29.2802 30.4138 30.8188 30.9643 33.301 31.2101C36.2748 31.5001 36.5059 31.9376 36.5059 32.5225C36.5059 33.5351 35.6899 33.9676 33.7778 33.9676C31.3742 33.9676 30.8483 33.363 30.6713 32.1686C30.6516 32.0408 30.5435 31.9474 30.4108 31.9474H29.236C29.0885 31.9474 28.9755 32.0654 28.9755 32.2079C28.9755 33.7366 29.8062 35.5602 33.7827 35.5602C36.6533 35.5553 38.3049 34.4198 38.3049 32.4439Z" fill="black"/>
</svg>
