<svg width="20" height="17" viewBox="0 0 20 17" fill="none" xmlns="http://www.w3.org/2000/svg">
<path d="M17.8791 3.61702H16.3636V0.542553C16.3636 0.398659 16.3062 0.260659 16.2039 0.15891C16.1016 0.0571616 15.9628 0 15.8182 0H4.18182C4.03715 0 3.89842 0.0571616 3.79612 0.15891C3.69383 0.260659 3.63636 0.398659 3.63636 0.542553V3.61702H2.12091C0.951818 3.61702 0 4.50952 0 5.60638V12.8404C0 12.9843 0.0574673 13.1223 0.15976 13.2241C0.262052 13.3258 0.400791 13.383 0.545455 13.383H3.63636V16.4574C3.63636 16.6013 3.69383 16.7393 3.79612 16.8411C3.89842 16.9428 4.03715 17 4.18182 17H15.8182C15.9628 17 16.1016 16.9428 16.2039 16.8411C16.3062 16.7393 16.3636 16.6013 16.3636 16.4574V13.383H19.4545C19.5992 13.383 19.7379 13.3258 19.8402 13.2241C19.9425 13.1223 20 12.9843 20 12.8404V5.60638C20 4.50952 19.0482 3.61702 17.8791 3.61702ZM4.72727 1.08511H15.2727V3.61702H4.72727V1.08511ZM15.2727 15.9149H4.72727V11.2128H15.2727V15.9149ZM18.9091 12.2979H16.3636V10.6702C16.3636 10.5263 16.3062 10.3883 16.2039 10.2866C16.1016 10.1848 15.9628 10.1277 15.8182 10.1277H4.18182C4.03715 10.1277 3.89842 10.1848 3.79612 10.2866C3.69383 10.3883 3.63636 10.5263 3.63636 10.6702V12.2979H1.09091V5.60638C1.09091 5.10814 1.55273 4.70213 2.12091 4.70213H17.8791C18.4473 4.70213 18.9091 5.10814 18.9091 5.60638V12.2979ZM16.3636 7.41489C16.3636 7.59374 16.3103 7.76857 16.2104 7.91727C16.1105 8.06597 15.9686 8.18187 15.8024 8.25032C15.6363 8.31876 15.4535 8.33666 15.2772 8.30177C15.1008 8.26688 14.9389 8.18076 14.8117 8.0543C14.6846 7.92784 14.598 7.76671 14.5629 7.5913C14.5278 7.4159 14.5458 7.23408 14.6147 7.06885C14.6835 6.90362 14.8 6.76239 14.9495 6.66303C15.099 6.56367 15.2747 6.51064 15.4545 6.51064C15.6957 6.51064 15.9269 6.60591 16.0974 6.77549C16.2679 6.94507 16.3636 7.17507 16.3636 7.41489Z" fill="white"/>
</svg>
