<svg width="20" height="20" viewBox="0 0 20 20" fill="none" xmlns="http://www.w3.org/2000/svg">
<path fill-rule="evenodd" clip-rule="evenodd" d="M0.417744 0.783767H8.35488C8.58561 0.783767 8.77263 0.970785 8.77263 1.20151V9.13865C8.77263 9.36938 8.58561 9.5564 8.35488 9.5564H0.417744C0.187019 9.5564 0 9.36938 0 9.13865V1.20151C0 0.970785 0.187019 0.783767 0.417744 0.783767ZM15.1514 0.122347L19.8777 4.8486C20.0408 5.01173 20.0408 5.27621 19.8777 5.43937L15.1514 10.1656C14.9883 10.3287 14.7238 10.3287 14.5606 10.1656L9.8344 5.43934C9.67127 5.27621 9.67127 5.01173 9.8344 4.84857L14.5607 0.122347C14.7238 -0.0407823 14.9883 -0.0407823 15.1514 0.122347ZM0.417744 11.2274H8.35488C8.58561 11.2274 8.77263 11.4144 8.77263 11.6451V19.5823C8.77263 19.813 8.58561 20 8.35488 20H0.417744C0.187019 20 0 19.813 0 19.5823V11.6451C0 11.4144 0.187019 11.2274 0.417744 11.2274ZM10.8613 11.2274H18.7985C19.0292 11.2274 19.2162 11.4144 19.2162 11.6451V19.5823C19.2162 19.813 19.0292 20 18.7985 20H10.8613C10.6306 20 10.4436 19.813 10.4436 19.5823V11.6451C10.4436 11.4144 10.6306 11.2274 10.8613 11.2274Z" fill="white"/>
</svg>
