<svg width="62" height="62" viewBox="0 0 62 62" fill="none" xmlns="http://www.w3.org/2000/svg">
<circle cx="30.9563" cy="30.9563" r="30.9563" fill="white"/>
<path d="M40.4636 26.4931C40.1477 26.3878 39.8318 26.2884 39.516 26.1948C39.5686 25.9783 39.6154 25.7619 39.6622 25.5454C40.3817 22.059 39.9079 19.257 38.3109 18.3327C36.7724 17.4494 34.2629 18.3678 31.7241 20.579C31.4726 20.7954 31.2269 21.0236 30.9929 21.2517C30.8349 21.0996 30.6711 20.9475 30.5074 20.8013C27.8457 18.438 25.1782 17.4435 23.5813 18.3737C22.0486 19.2628 21.5924 21.901 22.2358 25.2003C22.3002 25.5279 22.3704 25.8496 22.4523 26.1772C22.0779 26.2825 21.7093 26.3995 21.3642 26.5223C18.2404 27.6045 16 29.3127 16 31.0793C16 32.9044 18.3867 34.7354 21.6333 35.8468C21.8965 35.9346 22.1598 36.0223 22.4289 36.0984C22.3411 36.4493 22.2651 36.7945 22.1949 37.1513C21.5807 40.3979 22.0603 42.9718 23.593 43.8551C25.1724 44.7677 27.8282 43.8317 30.4138 41.5679C30.6185 41.3865 30.8232 41.1993 31.028 41.0004C31.2854 41.252 31.5545 41.4918 31.8235 41.7258C34.3272 43.8785 36.8017 44.7501 38.3285 43.8668C39.9079 42.9543 40.4227 40.1873 39.7558 36.8179C39.7031 36.5605 39.6446 36.2973 39.5803 36.0282C39.7675 35.9755 39.9488 35.917 40.1302 35.8585C43.5055 34.7412 45.9507 32.9337 45.9507 31.0793C45.9507 29.3068 43.6459 27.587 40.4636 26.4931ZM32.5489 21.5267C34.725 19.6313 36.7549 18.8884 37.6791 19.4208C38.6677 19.9882 39.048 22.2813 38.4279 25.2939C38.387 25.4928 38.346 25.6858 38.2934 25.8789C36.9947 25.5864 35.6785 25.3758 34.3565 25.2588C33.596 24.1707 32.7654 23.1295 31.8645 22.1526C32.0926 21.9361 32.3149 21.7314 32.5489 21.5267ZM25.7808 34.1153C26.0791 34.6242 26.3833 35.1332 26.705 35.6304C25.7925 35.5309 24.8858 35.3847 23.9907 35.1917C24.2481 34.3493 24.5699 33.4777 24.9443 32.5885C25.2133 33.1033 25.4883 33.6122 25.7808 34.1153ZM24.0083 27.0781C24.8507 26.8909 25.7457 26.7388 26.6758 26.6218C26.3657 27.1073 26.0616 27.6045 25.7749 28.1076C25.4883 28.6048 25.2075 29.1138 24.9443 29.6286C24.5757 28.7569 24.2657 27.9029 24.0083 27.0781ZM25.6111 31.1085C25.9972 30.3013 26.4184 29.5116 26.863 28.7335C27.3075 27.9555 27.7872 27.2009 28.2903 26.458C29.1678 26.3936 30.0628 26.3585 30.9753 26.3585C31.8879 26.3585 32.7888 26.3936 33.6604 26.458C34.1576 27.1951 34.6314 27.9497 35.0819 28.7218C35.5323 29.494 35.9535 30.2837 36.3512 31.0851C35.9593 31.8924 35.5381 32.688 35.0877 33.4718C34.6431 34.2498 34.1693 35.0045 33.6721 35.7532C32.8005 35.8176 31.8937 35.8468 30.9753 35.8468C30.0569 35.8468 29.1678 35.8176 28.3079 35.7649C27.7989 35.022 27.3192 34.2615 26.8688 33.4835C26.4184 32.7055 26.0031 31.9158 25.6111 31.1085ZM36.1758 34.1036C36.4741 33.5888 36.7549 33.0682 37.0298 32.5417C37.4042 33.3899 37.7318 34.2498 38.0184 35.1332C37.1117 35.3379 36.1933 35.4958 35.269 35.6011C35.5849 35.1098 35.8833 34.6067 36.1758 34.1036ZM37.0181 29.6286C36.7432 29.1138 36.4624 28.599 36.1699 28.0959C35.8833 27.5987 35.5849 27.1073 35.2749 26.6218C36.2167 26.7388 37.1176 26.8967 37.9599 27.0898C37.6908 27.9555 37.3749 28.7979 37.0181 29.6286ZM30.987 23.0476C31.6013 23.7145 32.1804 24.4164 32.7186 25.1418C31.5603 25.0892 30.3962 25.0892 29.238 25.1418C29.8112 24.3872 30.4021 23.6852 30.987 23.0476ZM24.2013 19.4617C25.1841 18.8884 27.366 19.7074 29.665 21.7431C29.8112 21.8718 29.9575 22.0122 30.1096 22.1526C29.2029 23.1295 28.3663 24.1707 27.6 25.2588C26.278 25.3758 24.9677 25.5805 23.669 25.8672C23.593 25.5688 23.5286 25.2646 23.4643 24.9605C22.9144 22.1292 23.2771 19.994 24.2013 19.4617ZM22.7681 34.8816C22.5225 34.8114 22.2826 34.7354 22.0428 34.6535C20.7968 34.2615 19.3811 33.6415 18.3574 32.8284C17.7666 32.4189 17.3688 31.7871 17.2577 31.0793C17.2577 30.0088 19.1062 28.6399 21.7737 27.7098C22.1071 27.5928 22.4464 27.4875 22.7857 27.3881C23.1835 28.6575 23.6632 29.9035 24.2189 31.1085C23.6573 32.3311 23.1718 33.5947 22.7681 34.8816ZM29.5889 40.6144C28.6237 41.4977 27.5064 42.1996 26.2897 42.6793C25.6404 42.9894 24.8916 43.0186 24.2247 42.7554C23.2946 42.2172 22.9085 40.1522 23.435 37.3736C23.4994 37.046 23.5696 36.7184 23.6515 36.3967C24.9618 36.6775 26.2838 36.8705 27.6234 36.97C28.3956 38.0639 29.2438 39.111 30.1505 40.0937C29.9633 40.2751 29.7761 40.4506 29.5889 40.6144ZM31.0221 39.1929C30.4255 38.5494 29.8288 37.8357 29.2497 37.0694C29.8112 37.0928 30.3904 37.1045 30.9753 37.1045C31.5779 37.1045 32.1687 37.0928 32.7537 37.0636C32.2155 37.8065 31.6364 38.5143 31.0221 39.1929ZM38.6677 40.9478C38.6151 41.6615 38.2641 42.3283 37.7025 42.7788C36.7724 43.3169 34.7894 42.615 32.6484 40.7782C32.4027 40.5676 32.157 40.3394 31.9054 40.1054C32.8005 39.1168 33.6253 38.0697 34.374 36.97C35.7136 36.8588 37.0474 36.6541 38.3636 36.3558C38.4221 36.5956 38.4747 36.8354 38.5215 37.0694C38.8081 38.333 38.8549 39.6492 38.6677 40.9478ZM39.7324 34.6593C39.5686 34.712 39.4048 34.7646 39.2352 34.8114C38.8257 33.5362 38.3226 32.2902 37.7435 31.0793C38.3051 29.8859 38.7789 28.6575 39.1767 27.3998C39.4809 27.4875 39.7733 27.5811 40.0541 27.6747C42.7801 28.6107 44.693 30.0029 44.693 31.0676C44.693 32.2141 42.6514 33.6941 39.7324 34.6593ZM30.9753 33.7819C32.4553 33.7819 33.6545 32.5827 33.6545 31.1027C33.6545 29.6227 32.4553 28.4235 30.9753 28.4235C29.4953 28.4235 28.2962 29.6227 28.2962 31.1027C28.2962 32.5827 29.4953 33.7819 30.9753 33.7819Z" fill="black"/>
</svg>
