<svg width="62" height="62" viewBox="0 0 62 62" fill="none" xmlns="http://www.w3.org/2000/svg">
<circle cx="30.9563" cy="30.9563" r="30.9563" fill="white"/>
<path d="M30.9782 23C27.5172 23 25.355 24.7297 24.4891 28.1907C25.7865 26.4607 27.3011 25.812 29.031 26.2445C30.0188 26.4907 30.7247 27.2069 31.5064 28.0006C32.7787 29.2918 34.2513 30.7865 37.4672 30.7865C40.9279 30.7865 43.0904 29.0565 43.9563 25.5948C42.6587 27.3258 41.1443 27.9745 39.4142 27.5419C38.4266 27.2956 37.7215 26.5795 36.9388 25.7858C35.6673 24.4947 34.1951 23 30.9782 23ZM24.4891 30.7865C21.0284 30.7865 18.8659 32.5164 18 35.9782C19.2974 34.2472 20.8118 33.5985 22.5419 34.031C23.5297 34.2774 24.2356 34.9934 25.0173 35.7871C26.2896 37.0783 27.7622 38.573 30.9782 38.573C34.4389 38.573 36.6013 36.8432 37.4672 33.3823C36.1696 35.1123 34.6552 35.761 32.9251 35.3284C31.9375 35.0823 31.2324 34.366 30.4497 33.5723C29.1782 32.2812 27.706 30.7865 24.4891 30.7865Z" fill="black"/>
</svg>
