<svg width="32" height="1943" viewBox="0 0 32 1943" fill="none" xmlns="http://www.w3.org/2000/svg">
<path d="M16 1937.86L21.7735 1932.09L16 1926.32L10.2265 1932.09L16 1937.86ZM16 6.31628L10.2265 12.0898L16 17.8633L21.7735 12.0898L16 6.31628ZM16 1932.09H17V1924.59H16H15V1932.09H16ZM16 1909.59H17V1894.59H16H15L15 1909.59H16ZM16 1879.59H17V1864.59H16H15L15 1879.59H16ZM16 1849.59H17L17 1834.59H16H15L15 1849.59H16ZM16 1819.59H17L17 1804.59H16H15L15 1819.59H16ZM16 1789.59H17V1774.59H16H15L15 1789.59H16ZM16 1759.59H17V1744.59H16H15L15 1759.59H16ZM16 1729.59H17V1714.59H16H15V1729.59H16ZM16 1699.59H17V1684.59H16H15L15 1699.59H16ZM16 1669.59H17L17 1654.59H16H15L15 1669.59H16ZM16 1639.59H17L17 1624.59H16H15V1639.59H16ZM16 1609.59H17L17 1594.59H16H15L15 1609.59H16ZM16 1579.59H17V1564.59H16H15L15 1579.59H16ZM16 1549.59H17V1534.59H16H15V1549.59H16ZM16 1519.59H17V1504.59H16H15L15 1519.59H16ZM16 1489.59H17V1474.59H16H15L15 1489.59H16ZM16 1459.59H17L17 1444.59H16H15L15 1459.59H16ZM16 1429.59H17L17 1414.59H16H15L15 1429.59H16ZM16 1399.59H17L17 1384.59H16H15L15 1399.59H16ZM16 1369.59H17V1354.59H16H15L15 1369.59H16ZM16 1339.59H17V1324.59H16H15V1339.59H16ZM16 1309.59H17V1294.59H16H15L15 1309.59H16ZM16 1279.59H17L17 1264.59H16H15L15 1279.59H16ZM16 1249.59H17L17 1234.59H16H15L15 1249.59H16ZM16 1219.59H17L17 1204.59H16H15L15 1219.59H16ZM16 1189.59H17V1174.59H16H15L15 1189.59H16ZM16 1159.59H17V1144.59H16H15L15 1159.59H16ZM16 1129.59H17V1114.59H16H15V1129.59H16ZM16 1099.59H17V1084.59H16H15L15 1099.59H16ZM16 1069.59H17L17 1054.59H16H15L15 1069.59H16ZM16 1039.59H17L17 1024.59H16H15L15 1039.59H16ZM16 1009.59H17L17 994.59H16H15L15 1009.59H16ZM16 979.59H17V964.59H16H15L15 979.59H16ZM16 949.59H17V934.59H16H15V949.59H16ZM16 919.59H17V904.59H16H15L15 919.59H16ZM16 889.59H17V874.59H16H15L15 889.59H16ZM16 859.59H17L17 844.59H16H15L15 859.59H16ZM16 829.59H17L17 814.59H16H15L15 829.59H16ZM16 799.59H17V784.59H16H15L15 799.59H16ZM16 769.59H17V754.59H16H15L15 769.59H16ZM16 739.59H17V724.59H16H15V739.59H16ZM16 709.59H17V694.59H16H15L15 709.59H16ZM16 679.59H17L17 664.59H16H15L15 679.59H16ZM16 649.59H17L17 634.59H16H15L15 649.59H16ZM16 619.59H17L17 604.59H16H15L15 619.59H16ZM16 589.59H17V574.59H16H15L15 589.59H16ZM16 559.59H17V544.59H16H15L15 559.59H16ZM16 529.59H17V514.59H16H15V529.59H16ZM16 499.59H17V484.59H16H15L15 499.59H16ZM16 469.59H17L17 454.59H16H15L15 469.59H16ZM16 439.59H17L17 424.59H16H15L15 439.59H16ZM16 409.59H17L17 394.59H16H15L15 409.59H16ZM16 379.59H17V364.59H16H15L15 379.59H16ZM16 349.59H17V334.59H16H15V349.59H16ZM16 319.59H17V304.59H16H15L15 319.59H16ZM16 289.59H17V274.59H16H15L15 289.59H16ZM16 259.59H17L17 244.59H16H15L15 259.59H16ZM16 229.59H17L17 214.59H16H15L15 229.59H16ZM16 199.59H17L17 184.59H16H15L15 199.59H16ZM16 169.59H17V154.59H16H15L15 169.59H16ZM16 139.59H17V124.59H16H15V139.59H16ZM16 109.59H17V94.5898H16H15L15 109.59H16ZM16 79.5898H17L17 64.5898H16H15L15 79.5898H16ZM16 49.5898H17L17 34.5898H16H15L15 49.5898H16ZM16 19.5898H17V12.0898H16H15L15 19.5898H16Z" fill="#EB5E28"/>
<rect y="1927.09" width="22" height="22" transform="rotate(-47 0 1927.09)" fill="#EB5E28"/>
<rect y="972.09" width="22" height="22" transform="rotate(-47 0 972.09)" fill="#EB5E28"/>
<rect y="16.0898" width="22" height="22" transform="rotate(-47 0 16.0898)" fill="#EB5E28"/>
</svg>
