<svg width="22" height="22" viewBox="0 0 22 22" fill="none" xmlns="http://www.w3.org/2000/svg">
<path d="M18 8.878C18 9.29221 18.3358 9.628 18.75 9.628C19.1642 9.628 19.5 9.29221 19.5 8.878H18.75H18ZM1.922 15.816L1.38742 16.342L1.38776 16.3424L1.922 15.816ZM3.5882 17.4823C3.99266 17.5717 4.39298 17.3163 4.48234 16.9118C4.5717 16.5073 4.31626 16.107 3.9118 16.0177L3.75 16.75L3.5882 17.4823ZM20.273 12.78L20.8802 12.3398L20.8798 12.3391L20.273 12.78ZM19.72 12.227L20.1609 11.6202L20.1602 11.6198L19.72 12.227ZM7.78 12.227L7.3398 11.6198L7.33915 11.6202L7.78 12.227ZM7.227 12.78L6.62025 12.3391L6.61945 12.3402L7.227 12.78ZM7.227 19.72L6.61977 20.1602L6.62058 20.1613L7.227 19.72ZM7.781 20.273L8.22163 19.6661L8.22122 19.6658L7.781 20.273ZM19.72 20.273L20.1602 20.8802L20.1609 20.8798L19.72 20.273ZM20.273 19.72L20.8798 20.1609L20.8802 20.1602L20.273 19.72ZM15.7397 14.1819C15.4259 13.9115 14.9523 13.9466 14.6819 14.2603C14.4115 14.5741 14.4466 15.0477 14.7603 15.3181L15.25 14.75L15.7397 14.1819ZM16.17 15.543L15.6803 16.1111L15.6808 16.1115L16.17 15.543ZM16.17 16.957L15.6808 16.3885L15.6803 16.3889L16.17 16.957ZM14.7603 17.1819C14.4466 17.4523 14.4115 17.9259 14.6819 18.2397C14.9523 18.5534 15.4259 18.5885 15.7397 18.3181L15.25 17.75L14.7603 17.1819ZM12.7397 15.3181C13.0534 15.0477 13.0885 14.5741 12.8181 14.2603C12.5477 13.9466 12.0741 13.9115 11.7603 14.1819L12.25 14.75L12.7397 15.3181ZM11.33 15.543L11.8192 16.1115L11.8197 16.1111L11.33 15.543ZM11.33 16.957L11.8197 16.3889L11.8192 16.3885L11.33 16.957ZM11.7603 18.3181C12.0741 18.5885 12.5477 18.5534 12.8181 18.2397C13.0885 17.9259 13.0534 17.4523 12.7397 17.1819L12.25 17.75L11.7603 18.3181ZM1.25 4C0.835786 4 0.5 4.33579 0.5 4.75C0.5 5.16421 0.835786 5.5 1.25 5.5V4.75V4ZM18.25 5.5C18.6642 5.5 19 5.16421 19 4.75C19 4.33579 18.6642 4 18.25 4V4.75V5.5ZM18.75 8.878H19.5C19.5 6.98289 19.5015 5.48749 19.347 4.3202C19.1898 3.13243 18.8589 2.17238 18.1126 1.41395L17.578 1.94L17.0434 2.46605C17.4691 2.89862 17.7242 3.49157 17.86 4.51705C17.9985 5.56301 18 6.94111 18 8.878H18.75ZM17.578 1.94L18.1126 1.41395C17.3645 0.653729 16.4146 0.315548 15.24 0.155262C14.0884 -0.0018944 12.6138 2.80943e-09 10.75 2.80943e-09V0.75V1.5C12.6572 1.5 14.0106 1.50139 15.0372 1.64149C16.0409 1.77845 16.6195 2.03527 17.0434 2.46605L17.578 1.94ZM10.75 0.75V2.80943e-09H8.75V0.75V1.5H10.75V0.75ZM8.75 0.75V2.80943e-09C6.88603 2.80943e-09 5.4113 -0.00164235 4.25952 0.155647C3.08499 0.316044 2.13506 0.654184 1.38742 1.41395L1.922 1.94L2.45658 2.46605C2.87994 2.03582 3.45851 1.77896 4.46248 1.64185C5.4892 1.50164 6.84297 1.5 8.75 1.5V0.75ZM1.922 1.94L1.38742 1.41395C0.641553 2.17192 0.310725 3.13202 0.153371 4.31975C-0.00129328 5.48718 0 6.98277 0 8.878H0.75H1.5C1.5 6.94124 1.50179 5.56282 1.64038 4.51675C1.77628 3.49098 2.03145 2.89808 2.45658 2.46605L1.922 1.94ZM0.75 8.878H0C0 10.7731 -0.00154528 12.2685 0.152987 13.4358C0.310228 14.6236 0.641096 15.5836 1.38742 16.342L1.922 15.816L2.45658 15.29C2.0309 14.8574 1.77577 14.2644 1.64001 13.2389C1.50155 12.193 1.5 10.8149 1.5 8.878H0.75ZM1.922 15.816L1.38776 16.3424C1.9847 16.9482 2.71261 17.2889 3.5882 17.4823L3.75 16.75L3.9118 16.0177C3.23939 15.8691 2.7993 15.6378 2.45624 15.2896L1.922 15.816ZM20.75 16.25H21.5C21.5 15.3292 21.501 14.5785 21.436 13.9779C21.3695 13.3632 21.2267 12.8177 20.8802 12.3398L20.273 12.78L19.6658 13.2202C19.7963 13.4003 19.892 13.6523 19.9447 14.1393C19.999 14.6405 20 15.2958 20 16.25H20.75ZM20.273 12.78L20.8798 12.3391C20.6793 12.0633 20.4367 11.8207 20.1609 11.6202L19.72 12.227L19.2791 12.8338C19.4277 12.9417 19.5583 13.0723 19.6662 13.2209L20.273 12.78ZM19.72 12.227L20.1602 11.6198C19.6823 11.2733 19.1368 11.1305 18.5221 11.064C17.9215 10.999 17.1708 11 16.25 11V11.75V12.5C17.2042 12.5 17.8595 12.501 18.3607 12.5553C18.8477 12.608 19.0997 12.7037 19.2798 12.8342L19.72 12.227ZM16.25 11.75V11H11.25V11.75V12.5H16.25V11.75ZM11.25 11.75V11C10.3292 11 9.57852 10.999 8.97792 11.064C8.36323 11.1305 7.81774 11.2733 7.3398 11.6198L7.78 12.227L8.2202 12.8342C8.40026 12.7037 8.65227 12.608 9.13933 12.5553C9.64048 12.501 10.2958 12.5 11.25 12.5V11.75ZM7.78 12.227L7.33915 11.6202C7.06328 11.8207 6.82068 12.0633 6.62025 12.3391L7.227 12.78L7.83375 13.2209C7.94168 13.0723 8.07231 12.9417 8.22085 12.8338L7.78 12.227ZM7.227 12.78L6.61945 12.3402C6.2733 12.8185 6.13052 13.3639 6.06398 13.9787C5.99897 14.5793 6 15.3297 6 16.25H6.75H7.5C7.5 15.2963 7.50103 14.6412 7.55527 14.1401C7.60798 13.6531 7.7037 13.4005 7.83455 13.2198L7.227 12.78ZM6.75 16.25H6C6 17.1703 5.99897 17.921 6.06398 18.5217C6.1305 19.1364 6.27325 19.6822 6.61977 20.1602L7.227 19.72L7.83423 19.2798C7.70375 19.0998 7.608 18.8476 7.55527 18.3603C7.50103 17.859 7.5 17.2037 7.5 16.25H6.75ZM7.227 19.72L6.62058 20.1613C6.82141 20.4373 7.06446 20.6799 7.34078 20.8802L7.781 20.273L8.22122 19.6658C8.07243 19.5579 7.94156 19.4273 7.83342 19.2787L7.227 19.72ZM7.781 20.273L7.34037 20.8799C7.81799 21.2267 8.36351 21.3695 8.97803 21.436C9.57852 21.501 10.3292 21.5 11.25 21.5V20.75V20C10.2958 20 9.64048 19.999 9.13947 19.9447C8.65249 19.892 8.40101 19.7963 8.22163 19.6661L7.781 20.273ZM11.25 20.75V21.5H16.25V20.75V20H11.25V20.75ZM16.25 20.75V21.5C17.1708 21.5 17.9215 21.501 18.5221 21.436C19.1368 21.3695 19.6823 21.2267 20.1602 20.8802L19.72 20.273L19.2798 19.6658C19.0997 19.7963 18.8477 19.892 18.3607 19.9447C17.8595 19.999 17.2042 20 16.25 20V20.75ZM19.72 20.273L20.1609 20.8798C20.4367 20.6793 20.6793 20.4367 20.8798 20.1609L20.273 19.72L19.6662 19.2791C19.5583 19.4277 19.4277 19.5583 19.2791 19.6662L19.72 20.273ZM20.273 19.72L20.8802 20.1602C21.2267 19.6823 21.3695 19.1368 21.436 18.5221C21.501 17.9215 21.5 17.1708 21.5 16.25H20.75H20C20 17.2042 19.999 17.8595 19.9447 18.3607C19.892 18.8477 19.7963 19.0997 19.6658 19.2798L20.273 19.72ZM15.25 14.75L14.7603 15.3181L15.6803 16.1111L16.17 15.543L16.6597 14.9749L15.7397 14.1819L15.25 14.75ZM16.17 15.543L15.6808 16.1115C15.7795 16.1964 15.8563 16.2626 15.9202 16.3206C15.9847 16.379 16.0218 16.4163 16.0433 16.4406C16.0652 16.4653 16.0545 16.4585 16.0385 16.4253C16.0187 16.3844 16 16.3228 16 16.25H16.75H17.5C17.5 15.8804 17.3153 15.6147 17.1669 15.4469C17.0284 15.2902 16.8364 15.1269 16.6592 14.9745L16.17 15.543ZM16.75 16.25H16C16 16.1772 16.0187 16.1156 16.0385 16.0747C16.0545 16.0415 16.0652 16.0347 16.0433 16.0594C16.0218 16.0837 15.9847 16.121 15.9202 16.1794C15.8563 16.2374 15.7795 16.3036 15.6808 16.3885L16.17 16.957L16.6592 17.5255C16.8364 17.3731 17.0284 17.2098 17.1669 17.0531C17.3153 16.8853 17.5 16.6196 17.5 16.25H16.75ZM16.17 16.957L15.6803 16.3889L14.7603 17.1819L15.25 17.75L15.7397 18.3181L16.6597 17.5251L16.17 16.957ZM12.25 14.75L11.7603 14.1819L10.8403 14.9749L11.33 15.543L11.8197 16.1111L12.7397 15.3181L12.25 14.75ZM11.33 15.543L10.8408 14.9745C10.6636 15.1269 10.4716 15.2902 10.3331 15.4469C10.1847 15.6147 10 15.8804 10 16.25H10.75H11.5C11.5 16.3228 11.4813 16.3844 11.4615 16.4253C11.4455 16.4585 11.4348 16.4653 11.4567 16.4406C11.4782 16.4163 11.5153 16.379 11.5798 16.3206C11.6437 16.2626 11.7205 16.1964 11.8192 16.1115L11.33 15.543ZM10.75 16.25H10C10 16.6196 10.1847 16.8853 10.3331 17.0531C10.4716 17.2098 10.6636 17.3731 10.8408 17.5255L11.33 16.957L11.8192 16.3885C11.7205 16.3036 11.6437 16.2374 11.5798 16.1794C11.5153 16.121 11.4782 16.0837 11.4567 16.0594C11.4348 16.0347 11.4455 16.0415 11.4615 16.0747C11.4813 16.1156 11.5 16.1772 11.5 16.25H10.75ZM11.33 16.957L10.8403 17.5251L11.7603 18.3181L12.25 17.75L12.7397 17.1819L11.8197 16.3889L11.33 16.957ZM1.25 4.75V5.5H18.25V4.75V4H1.25V4.75Z" fill="white"/>
</svg>
