<svg width="341" height="341" viewBox="0 0 341 341" fill="none" xmlns="http://www.w3.org/2000/svg">
<path d="M147.5 13.2791C161.732 5.06194 179.268 5.06195 193.5 13.2791L295.157 71.9709C309.39 80.188 318.157 95.3739 318.157 111.808V229.192C318.157 245.626 309.39 260.812 295.157 269.029L193.5 327.721C179.268 335.938 161.732 335.938 147.5 327.721L45.8427 269.029C31.6102 260.812 22.8427 245.626 22.8427 229.192V111.808C22.8427 95.3739 31.6102 80.188 45.8427 71.9709L147.5 13.2791Z" fill="#EB5E28"/>
<path d="M112.689 142.779L156.778 118.151C162.472 114.971 166 108.959 166 102.437V63.4918C166 49.5658 150.864 40.9146 138.865 47.982L56.865 96.2786C51.372 99.514 48 105.413 48 111.788V232.06C48 238.516 51.458 244.478 57.0624 247.684L138.919 294.509C150.95 301.391 165.92 292.662 165.856 278.801L165.444 189.417C165.398 179.508 157.352 171.5 147.444 171.5H143.779C133.838 171.5 125.779 179.559 125.779 189.5V224.987C125.779 235.45 112.359 239.76 106.267 231.253C104.983 229.461 104.281 227.318 104.255 225.114L103.468 158.706C103.39 152.108 106.928 145.996 112.689 142.779Z" fill="black"/>
<path d="M285.035 95.7973L201.443 47.2884C198.86 45.7895 195.927 45 192.941 45C183.585 45 176 52.5846 176 61.9407V115.812V145.547C176 153.04 180.642 159.749 187.653 162.391L210.5 171L246.92 187.524C251.536 189.618 254.5 194.219 254.5 199.287C254.5 202.374 253.685 205.407 252.137 208.077L245.125 220.177C239.186 230.426 225.138 232.243 216.787 223.843L212.236 219.266C208.882 215.893 207 211.33 207 206.574V204V186.439C207 177.912 200.088 171 191.561 171C182.987 171 176.055 177.986 176.122 186.56L176.844 278.605C176.952 292.398 191.898 300.949 203.844 294.052L285 247.196C290.569 243.981 294 238.038 294 231.608V204V183.876C294 176.176 289.102 169.328 281.814 166.841L222.385 146.557C215.277 144.131 210.5 137.452 210.5 129.942C210.5 116.763 224.48 108.283 236.167 114.372L267.684 130.79C279.667 137.033 294 128.339 294 114.827V111.366C294 104.949 290.584 99.0178 285.035 95.7973Z" fill="black"/>
</svg>
